<?xml version="1.0" encoding="UTF-8"?><svg id="Livello_2" xmlns="http://www.w3.org/2000/svg" viewBox="0 0 324.9 56"><defs><style>.cls-1{fill:#eb672b;}.cls-2{fill:#4d4d4d;}.cls-3{fill:#00aed6;}</style></defs><g id="Livello_1-2"><g><path class="cls-3" d="M48.95,27.24l3.91,8.42c4.82,7.67,3.28,12.46-4.46,18.12-4.19,3.06-21.26,2.11-25.73,2.01-4.48-.1-8.47-1.3-11.98-3.6-3.51-2.3-6.25-5.51-8.23-9.63S-.28,34.36,.08,30.17c.36-4.19,1.79-8.01,4.28-11.45,2.49-3.44,5.85-6.18,10.07-8.2,3.96-1.9,7.96-2.79,12.01-2.68,4.04,.12,7.79,1.29,11.23,3.53,3.45,2.24,6.21,5.52,8.28,9.84l-27.86,20.68c1.86,1.64,3.99,2.34,6.35,2.65,9.95,1.31,16.51,1.77,18.74,1.07,9.61-3.03,2.8-14.05,5.77-18.37Zm-36.15-1.13c-.97,2.87-.67,6.05,.88,9.55l18.33-13.63c-1.6-1.89-3.59-3.06-5.95-3.5-2.37-.45-4.78-.08-7.25,1.11-3.04,1.46-5.04,3.62-6,6.49Z"/><path class="cls-1" d="M33.87,37.27c-.44-.32,5.76-22.59,15.29-37.27,12.8,19.25,15.68,37.91,15.28,38.2-.65,.46-8.63-13.45-17.26-12.39-5.44,.67-12.74,11.85-13.3,11.46Z"/></g><g><g><path class="cls-2" d="M76.98,34.86c-1.48,0-2.8-.22-3.98-.67-1.17-.44-2.17-1.09-2.98-1.93-.81-.84-1.43-1.86-1.87-3.06-.44-1.2-.65-2.56-.65-4.08s.22-2.87,.65-4.07c.44-1.2,1.06-2.22,1.87-3.06,.81-.84,1.8-1.48,2.98-1.93,1.17-.44,2.49-.67,3.94-.67,2.06,0,3.71,.41,4.96,1.24,1.25,.83,2.2,1.93,2.85,3.3l-4.14,2.24c-.34-.72-.78-1.32-1.33-1.8-.54-.48-1.33-.72-2.34-.72-1.23,0-2.18,.35-2.85,1.06-.67,.71-1,1.68-1,2.9v3.03c0,1.23,.33,2.19,1,2.9,.67,.71,1.64,1.06,2.92,1.06,1.04,0,1.86-.24,2.45-.72,.59-.48,1.09-1.11,1.51-1.88l4.07,2.31c-.68,1.37-1.66,2.47-2.96,3.3-1.3,.83-3,1.24-5.1,1.24Z"/><path class="cls-2" d="M98,34.86c-1.45,0-2.76-.22-3.92-.67-1.16-.44-2.15-1.09-2.96-1.93-.81-.84-1.43-1.86-1.87-3.06-.44-1.2-.65-2.56-.65-4.08s.22-2.87,.65-4.07c.44-1.2,1.06-2.22,1.87-3.06,.81-.84,1.8-1.48,2.96-1.93,1.16-.44,2.47-.67,3.92-.67s2.76,.22,3.92,.67c1.16,.45,2.15,1.09,2.96,1.93,.81,.84,1.43,1.86,1.87,3.06,.44,1.2,.65,2.56,.65,4.07s-.22,2.87-.65,4.08c-.44,1.2-1.06,2.22-1.87,3.06-.81,.84-1.8,1.48-2.96,1.93s-2.47,.67-3.92,.67Zm0-3.97c1.21,0,2.15-.37,2.83-1.12,.68-.74,1.02-1.8,1.02-3.17v-2.96c0-1.37-.34-2.43-1.02-3.17-.68-.74-1.62-1.12-2.83-1.12s-2.15,.37-2.83,1.12c-.68,.75-1.02,1.8-1.02,3.17v2.96c0,1.37,.34,2.43,1.02,3.17,.68,.75,1.62,1.12,2.83,1.12Z"/><path class="cls-2" d="M111.25,34.43V15.82h5.37v3.39h.22c.22-.53,.48-1.02,.8-1.48,.31-.46,.7-.86,1.14-1.21,.45-.35,.97-.62,1.56-.83,.59-.2,1.26-.31,2.01-.31,.9,0,1.72,.15,2.47,.45,.75,.3,1.39,.75,1.92,1.35,.53,.6,.95,1.33,1.25,2.2,.3,.87,.45,1.86,.45,2.99v12.04h-5.37v-11.32c0-2.4-1.05-3.61-3.16-3.61-.41,0-.82,.05-1.22,.16s-.76,.28-1.07,.5c-.31,.23-.56,.51-.74,.85-.18,.34-.27,.73-.27,1.19v12.22h-5.37Z"/><path class="cls-2" d="M151.84,36.3c0,1.97-.83,3.43-2.5,4.36s-4.3,1.41-7.88,1.41c-1.79,0-3.27-.1-4.43-.31-1.16-.2-2.09-.5-2.78-.88s-1.17-.84-1.45-1.37c-.28-.53-.42-1.11-.42-1.73,0-1.06,.31-1.86,.94-2.4,.63-.54,1.51-.96,2.65-1.24v-.22c-.8-.24-1.43-.58-1.91-1.03-.47-.44-.71-1.08-.71-1.89,0-.91,.31-1.59,.93-2.02,.62-.43,1.43-.77,2.45-1.01v-.22c-1.11-.53-1.98-1.27-2.6-2.24-.62-.96-.93-2.13-.93-3.5,0-1.08,.19-2.04,.58-2.87,.39-.83,.94-1.52,1.65-2.07,.71-.55,1.57-.97,2.56-1.26,.99-.29,2.11-.43,3.34-.43s2.29,.13,3.3,.4v-1.01c0-.72,.25-1.32,.76-1.8,.51-.48,1.21-.72,2.11-.72h3.3v3.89h-4.5v.32c1.02,.53,1.81,1.26,2.38,2.18,.57,.93,.85,2.05,.85,3.37,0,1.08-.19,2.03-.58,2.85-.39,.82-.94,1.51-1.67,2.07-.73,.56-1.59,.99-2.6,1.28-1,.29-2.12,.43-3.36,.43-.56,0-1.09-.03-1.6-.09-.51-.06-.99-.15-1.45-.27-.27,.14-.49,.32-.67,.54-.18,.22-.27,.49-.27,.83,0,.29,.07,.52,.22,.69,.15,.17,.35,.29,.6,.38,.25,.08,.55,.14,.89,.16,.34,.02,.69,.04,1.05,.04h4.28c1.33,0,2.47,.13,3.41,.4,.94,.27,1.72,.64,2.32,1.12,.6,.48,1.04,1.05,1.31,1.69,.27,.65,.4,1.37,.4,2.16Zm-5.08,.4c0-.48-.19-.86-.58-1.14-.39-.28-1.13-.41-2.21-.41h-6.43c-.48,.41-.73,.91-.73,1.51s.25,1.05,.74,1.42c.5,.37,1.34,.56,2.52,.56h3.16c1.23,0,2.13-.17,2.69-.5,.56-.34,.84-.82,.84-1.44Zm-5.41-11.43c1.09,0,1.88-.26,2.38-.79,.5-.53,.74-1.2,.74-2.02v-.87c0-.82-.25-1.49-.74-2.02-.5-.53-1.29-.79-2.38-.79s-1.84,.27-2.32,.79c-.48,.53-.73,1.2-.73,2.02v.87c0,.82,.24,1.49,.73,2.02,.48,.53,1.26,.79,2.32,.79Z"/><path class="cls-2" d="M155.87,30.25h5.95v-10.24h-5.95v-4.18h11.33v14.42h5.52v4.18h-16.85v-4.18Zm8.64-16.8c-1.21,0-2.05-.25-2.52-.74-.47-.49-.71-1.09-.71-1.79v-1.05c0-.72,.24-1.32,.71-1.8,.47-.48,1.31-.72,2.52-.72s2.05,.24,2.52,.72c.47,.48,.71,1.08,.71,1.8v1.05c0,.7-.24,1.29-.71,1.79-.47,.49-1.31,.74-2.52,.74Z"/><path class="cls-2" d="M188.29,31.04h-.22c-.41,1.06-1.06,1.96-1.94,2.7-.88,.74-2.08,1.12-3.58,1.12-.9,0-1.72-.15-2.47-.45-.75-.3-1.39-.75-1.92-1.35-.53-.6-.95-1.33-1.25-2.2-.3-.87-.45-1.86-.45-2.99V15.82h5.37v11.32c0,2.4,1.05,3.61,3.16,3.61,.41,0,.82-.05,1.22-.16,.4-.11,.75-.28,1.05-.5,.3-.23,.55-.51,.74-.85,.19-.34,.29-.73,.29-1.19V15.82h5.37v18.61h-5.37v-3.39Z"/><path class="cls-2" d="M198.38,34.43V15.82h5.37v3.39h.22c.22-.53,.48-1.02,.8-1.48,.31-.46,.7-.86,1.14-1.21,.45-.35,.97-.62,1.56-.83,.59-.2,1.26-.31,2.01-.31,.9,0,1.72,.15,2.47,.45,.75,.3,1.39,.75,1.92,1.35,.53,.6,.95,1.33,1.25,2.2,.3,.87,.45,1.86,.45,2.99v12.04h-5.37v-11.32c0-2.4-1.05-3.61-3.16-3.61-.41,0-.82,.05-1.22,.16s-.76,.28-1.07,.5c-.31,.23-.56,.51-.74,.85-.18,.34-.27,.73-.27,1.19v12.22h-5.37Z"/><path class="cls-2" d="M220.2,34.43v-4.47l10.42-9.96h-10.06v-4.18h16.26v4.47l-10.42,9.96h10.78v4.18h-16.99Z"/><polygon class="cls-3" points="243 30.25 248.95 30.25 248.95 20 243 20 243 15.82 254.33 15.82 254.33 30.25 259.84 30.25 259.84 34.43 243 34.43 243 30.25"/><path class="cls-3" d="M251.64,13.44c-1.21,0-2.05-.25-2.52-.74-.47-.49-.71-1.09-.71-1.79v-1.05c0-.72,.24-1.32,.71-1.8,.47-.48,1.31-.72,2.52-.72s2.05,.24,2.52,.72c.47,.48,.71,1.08,.71,1.8v1.05c0,.7-.24,1.29-.71,1.79-.47,.49-1.31,.74-2.52,.74Z"/><path class="cls-3" d="M272.26,34.86c-1.45,0-2.76-.22-3.92-.67-1.16-.44-2.15-1.09-2.96-1.93-.81-.84-1.43-1.86-1.87-3.06-.44-1.2-.65-2.56-.65-4.08s.22-2.87,.65-4.07c.44-1.2,1.06-2.22,1.87-3.06,.81-.84,1.8-1.48,2.96-1.93,1.16-.44,2.47-.67,3.92-.67s2.76,.22,3.92,.67c1.16,.45,2.15,1.09,2.96,1.93,.81,.84,1.43,1.86,1.87,3.06,.44,1.2,.65,2.56,.65,4.07s-.22,2.87-.65,4.08c-.44,1.2-1.06,2.22-1.87,3.06-.81,.84-1.8,1.48-2.96,1.93s-2.47,.67-3.92,.67Zm0-3.97c1.21,0,2.15-.37,2.83-1.12,.68-.74,1.02-1.8,1.02-3.17v-2.96c0-1.37-.34-2.43-1.02-3.17-.68-.74-1.62-1.12-2.83-1.12s-2.15,.37-2.83,1.12c-.68,.75-1.02,1.8-1.02,3.17v2.96c0,1.37,.34,2.43,1.02,3.17,.68,.75,1.62,1.12,2.83,1.12Z"/><path class="cls-2" d="M285.51,34.43V15.82h5.37v3.39h.22c.22-.53,.48-1.02,.8-1.48,.31-.46,.7-.86,1.14-1.21,.45-.35,.97-.62,1.56-.83,.59-.2,1.26-.31,2.01-.31,.9,0,1.72,.15,2.47,.45,.75,.3,1.39,.75,1.92,1.35,.53,.6,.95,1.33,1.25,2.2,.3,.87,.45,1.86,.45,2.99v12.04h-5.37v-11.32c0-2.4-1.05-3.61-3.16-3.61-.41,0-.82,.05-1.22,.16s-.76,.28-1.07,.5c-.31,.23-.56,.51-.74,.85-.18,.34-.27,.73-.27,1.19v12.22h-5.37Z"/><path class="cls-2" d="M316.33,34.86c-3.15,0-5.53-.87-7.15-2.6-1.62-1.73-2.43-4.09-2.43-7.07,0-1.51,.21-2.88,.64-4.09,.42-1.21,1.03-2.25,1.82-3.1,.79-.85,1.74-1.5,2.87-1.95,1.13-.44,2.39-.67,3.79-.67s2.66,.22,3.78,.67c1.11,.45,2.06,1.08,2.83,1.89,.77,.82,1.37,1.81,1.8,2.98,.42,1.17,.64,2.47,.64,3.91v1.59h-12.82v.32c0,1.2,.38,2.17,1.13,2.9,.75,.73,1.85,1.1,3.3,1.1,1.11,0,2.07-.21,2.87-.63,.8-.42,1.49-.98,2.07-1.68l2.9,3.14c-.73,.89-1.74,1.66-3.05,2.31-1.31,.65-2.97,.97-4.97,.97Zm-.44-15.65c-1.16,0-2.09,.35-2.78,1.06-.69,.71-1.03,1.67-1.03,2.87v.29h7.55v-.29c0-1.23-.33-2.19-1-2.88-.67-.7-1.58-1.05-2.74-1.05Z"/></g><g><path class="cls-3" d="M73.51,46.68v9.09h-2.39v-9.09c-1.19,0-2.39,0-3.58-.01v-1.8h9.62v1.8c-1.22,0-2.43,0-3.65,.01Z"/><polygon class="cls-3" points="78.58 53.94 81.19 53.94 81.19 49.45 78.58 49.45 78.58 47.61 83.55 47.61 83.55 53.94 85.97 53.94 85.97 55.77 78.58 55.77 78.58 53.94"/><path class="cls-3" d="M82.37,46.57c-.53,0-.9-.11-1.11-.32-.21-.22-.31-.48-.31-.78v-.46c0-.32,.1-.58,.31-.79,.21-.21,.58-.32,1.11-.32s.9,.11,1.11,.32c.21,.21,.31,.47,.31,.79v.46c0,.31-.1,.57-.31,.78-.21,.22-.58,.32-1.11,.32Z"/><path class="cls-3" d="M101.29,55.96c-.65,0-1.23-.1-1.74-.29-.51-.19-.95-.48-1.31-.85-.36-.37-.63-.82-.82-1.34-.19-.53-.29-1.12-.29-1.79s.1-1.26,.29-1.79,.46-.97,.82-1.34c.36-.37,.79-.65,1.31-.85,.51-.19,1.09-.29,1.73-.29,.9,0,1.63,.18,2.17,.55,.55,.36,.96,.85,1.25,1.45l-1.81,.98c-.15-.32-.34-.58-.58-.79-.24-.21-.58-.32-1.03-.32-.54,0-.96,.16-1.25,.47-.29,.31-.44,.74-.44,1.27v1.33c0,.54,.15,.96,.44,1.27,.29,.31,.72,.47,1.28,.47,.46,0,.81-.11,1.07-.32,.26-.21,.48-.48,.66-.82l1.78,1.01c-.3,.6-.73,1.08-1.3,1.45-.57,.36-1.31,.55-2.24,.55Z"/><path class="cls-3" d="M110.51,55.96c-.64,0-1.21-.1-1.72-.29-.51-.19-.94-.48-1.3-.85-.36-.37-.63-.82-.82-1.34-.19-.53-.29-1.12-.29-1.79s.1-1.26,.29-1.79,.46-.97,.82-1.34c.36-.37,.79-.65,1.3-.85,.51-.19,1.08-.29,1.72-.29s1.21,.1,1.72,.29c.51,.2,.94,.48,1.3,.85,.36,.37,.63,.82,.82,1.34s.29,1.12,.29,1.79-.1,1.26-.29,1.79c-.19,.53-.46,.98-.82,1.34-.36,.37-.79,.65-1.3,.85-.51,.19-1.08,.29-1.72,.29Zm0-1.74c.53,0,.94-.16,1.24-.49,.3-.33,.45-.79,.45-1.39v-1.3c0-.6-.15-1.06-.45-1.39-.3-.33-.71-.49-1.24-.49s-.94,.16-1.24,.49c-.3,.33-.45,.79-.45,1.39v1.3c0,.6,.15,1.06,.45,1.39,.3,.33,.71,.49,1.24,.49Z"/><path class="cls-3" d="M116.32,55.77v-8.16h2.36v1.49h.1c.1-.23,.21-.45,.35-.65,.14-.2,.3-.38,.5-.53s.42-.27,.68-.36c.26-.09,.55-.13,.88-.13,.39,0,.75,.07,1.08,.2,.33,.13,.61,.33,.84,.59,.23,.26,.42,.59,.55,.96,.13,.38,.2,.82,.2,1.31v5.28h-2.36v-4.96c0-1.05-.46-1.58-1.38-1.58-.18,0-.36,.02-.53,.07-.18,.05-.33,.12-.47,.22-.14,.1-.25,.22-.33,.37-.08,.15-.12,.32-.12,.52v5.36h-2.36Z"/><path class="cls-3" d="M125.87,55.77v-8.16h2.36v1.49h.1c.1-.23,.21-.45,.35-.65,.14-.2,.3-.38,.5-.53s.42-.27,.68-.36c.26-.09,.55-.13,.88-.13,.39,0,.75,.07,1.08,.2,.33,.13,.61,.33,.84,.59,.23,.26,.42,.59,.55,.96,.13,.38,.2,.82,.2,1.31v5.28h-2.36v-4.96c0-1.05-.46-1.58-1.38-1.58-.18,0-.36,.02-.53,.07-.18,.05-.33,.12-.47,.22-.14,.1-.25,.22-.33,.37-.08,.15-.12,.32-.12,.52v5.36h-2.36Z"/><path class="cls-3" d="M139.38,55.96c-1.38,0-2.42-.38-3.14-1.14s-1.07-1.79-1.07-3.1c0-.66,.09-1.26,.28-1.79,.19-.53,.45-.98,.8-1.36,.34-.37,.76-.66,1.26-.85,.49-.19,1.05-.29,1.66-.29s1.17,.1,1.66,.29c.49,.2,.9,.47,1.24,.83,.34,.36,.6,.79,.79,1.3,.19,.51,.28,1.08,.28,1.72v.7h-5.62v.14c0,.53,.16,.95,.49,1.27,.33,.32,.81,.48,1.45,.48,.49,0,.91-.09,1.26-.28,.35-.18,.65-.43,.91-.73l1.27,1.38c-.32,.39-.76,.73-1.34,1.01-.57,.28-1.3,.43-2.18,.43Zm-.19-6.86c-.51,0-.92,.16-1.22,.47-.3,.31-.45,.73-.45,1.26v.13h3.31v-.13c0-.54-.15-.96-.44-1.26-.29-.31-.69-.46-1.2-.46Z"/><path class="cls-3" d="M149.34,55.77c-.85,0-1.48-.22-1.89-.66-.41-.44-.62-1-.62-1.69v-3.97h-2.23v-1.83h1.45c.35,0,.6-.07,.75-.21,.15-.14,.22-.39,.22-.76v-1.91h2.16v2.88h3.2v1.83h-3.2v4.49h3.2v1.83h-3.04Z"/><path class="cls-3" d="M158.89,55.77c-.85,0-1.48-.22-1.89-.66-.41-.44-.62-1-.62-1.69v-3.97h-2.23v-1.83h1.45c.35,0,.6-.07,.75-.21,.15-.14,.22-.39,.22-.76v-1.91h2.16v2.88h3.2v1.83h-3.2v4.49h3.2v1.83h-3.04Z"/><path class="cls-3" d="M167.81,55.96c-.64,0-1.21-.1-1.72-.29-.51-.19-.94-.48-1.3-.85-.36-.37-.63-.82-.82-1.34-.19-.53-.29-1.12-.29-1.79s.1-1.26,.29-1.79,.46-.97,.82-1.34c.36-.37,.79-.65,1.3-.85,.51-.19,1.08-.29,1.72-.29s1.21,.1,1.72,.29c.51,.2,.94,.48,1.3,.85,.36,.37,.63,.82,.82,1.34s.29,1.12,.29,1.79-.1,1.26-.29,1.79c-.19,.53-.46,.98-.82,1.34-.36,.37-.79,.65-1.3,.85-.51,.19-1.08,.29-1.72,.29Zm0-1.74c.53,0,.94-.16,1.24-.49,.3-.33,.45-.79,.45-1.39v-1.3c0-.6-.15-1.06-.45-1.39-.3-.33-.71-.49-1.24-.49s-.94,.16-1.24,.49c-.3,.33-.45,.79-.45,1.39v1.3c0,.6,.15,1.06,.45,1.39,.3,.33,.71,.49,1.24,.49Z"/><path class="cls-3" d="M189.88,55.77c-.49,0-.88-.12-1.18-.37-.3-.25-.47-.6-.53-1.07h-.08c-.15,.54-.44,.94-.88,1.22-.44,.27-.98,.41-1.62,.41-.8,0-1.44-.21-1.92-.64-.48-.43-.72-1.02-.72-1.79,0-.85,.31-1.49,.94-1.9,.63-.41,1.54-.62,2.75-.62h1.32v-.41c0-.48-.11-.85-.34-1.1-.23-.25-.61-.37-1.15-.37-.5,0-.9,.1-1.21,.28s-.57,.44-.8,.74l-1.29-1.14c.28-.46,.71-.85,1.3-1.15,.59-.3,1.34-.45,2.27-.45,1.12,0,2,.26,2.63,.77,.63,.51,.95,1.28,.95,2.32v3.57h.91v1.69h-1.35Zm-3.39-1.34c.41,0,.76-.1,1.05-.3s.43-.49,.43-.87v-.98h-1.26c-.97,0-1.45,.32-1.45,.96v.32c0,.28,.11,.5,.33,.65,.22,.15,.52,.22,.89,.22Z"/><path class="cls-3" d="M202.26,55.77v-8.16h2.36v1.49h.1c.1-.23,.21-.45,.35-.65,.14-.2,.3-.38,.5-.53s.42-.27,.68-.36c.26-.09,.55-.13,.88-.13,.39,0,.75,.07,1.08,.2,.33,.13,.61,.33,.84,.59,.23,.26,.42,.59,.55,.96,.13,.38,.2,.82,.2,1.31v5.28h-2.36v-4.96c0-1.05-.46-1.58-1.38-1.58-.18,0-.36,.02-.53,.07-.18,.05-.33,.12-.47,.22-.14,.1-.25,.22-.33,.37-.08,.15-.12,.32-.12,.52v5.36h-2.36Z"/><path class="cls-3" d="M216.94,54.28h-.1c-.18,.46-.46,.86-.85,1.19-.39,.33-.91,.49-1.57,.49-.39,0-.75-.07-1.08-.2-.33-.13-.61-.33-.84-.59-.23-.26-.42-.58-.55-.96-.13-.38-.2-.82-.2-1.31v-5.28h2.36v4.96c0,1.05,.46,1.58,1.38,1.58,.18,0,.36-.02,.53-.07,.18-.05,.33-.12,.46-.22,.13-.1,.24-.22,.33-.37,.08-.15,.13-.32,.13-.52v-5.36h2.36v8.16h-2.36v-1.49Z"/><path class="cls-3" d="M225.1,55.96c-.64,0-1.21-.1-1.72-.29-.51-.19-.94-.48-1.3-.85-.36-.37-.63-.82-.82-1.34-.19-.53-.29-1.12-.29-1.79s.1-1.26,.29-1.79,.46-.97,.82-1.34c.36-.37,.79-.65,1.3-.85,.51-.19,1.08-.29,1.72-.29s1.21,.1,1.72,.29c.51,.2,.94,.48,1.3,.85,.36,.37,.63,.82,.82,1.34s.29,1.12,.29,1.79-.1,1.26-.29,1.79c-.19,.53-.46,.98-.82,1.34-.36,.37-.79,.65-1.3,.85-.51,.19-1.08,.29-1.72,.29Zm0-1.74c.53,0,.94-.16,1.24-.49,.3-.33,.45-.79,.45-1.39v-1.3c0-.6-.15-1.06-.45-1.39-.3-.33-.71-.49-1.24-.49s-.94,.16-1.24,.49c-.3,.33-.45,.79-.45,1.39v1.3c0,.6,.15,1.06,.45,1.39,.3,.33,.71,.49,1.24,.49Z"/><path class="cls-3" d="M233.25,55.77l-2.94-8.16h2.48l1.07,3.49,.78,2.72h.13l.78-2.72,1.07-3.49h2.39l-2.94,8.16h-2.8Z"/><polygon class="cls-3" points="240.92 53.94 243.53 53.94 243.53 49.45 240.92 49.45 240.92 47.61 245.89 47.61 245.89 53.94 248.31 53.94 248.31 55.77 240.92 55.77 240.92 53.94"/><path class="cls-3" d="M244.71,46.57c-.53,0-.9-.11-1.11-.32-.21-.22-.31-.48-.31-.78v-.46c0-.32,.1-.58,.31-.79,.21-.21,.58-.32,1.11-.32s.9,.11,1.11,.32c.21,.21,.31,.47,.31,.79v.46c0,.31-.1,.57-.31,.78-.21,.22-.58,.32-1.11,.32Z"/><path class="cls-3" d="M263.64,55.96c-.65,0-1.23-.1-1.74-.29-.51-.19-.95-.48-1.31-.85-.36-.37-.63-.82-.82-1.34-.19-.53-.29-1.12-.29-1.79s.1-1.26,.29-1.79,.46-.97,.82-1.34c.36-.37,.79-.65,1.31-.85,.51-.19,1.09-.29,1.73-.29,.9,0,1.63,.18,2.17,.55,.55,.36,.96,.85,1.25,1.45l-1.81,.98c-.15-.32-.34-.58-.58-.79-.24-.21-.58-.32-1.03-.32-.54,0-.96,.16-1.25,.47-.29,.31-.44,.74-.44,1.27v1.33c0,.54,.15,.96,.44,1.27,.29,.31,.72,.47,1.28,.47,.46,0,.81-.11,1.07-.32,.26-.21,.48-.48,.66-.82l1.78,1.01c-.3,.6-.73,1.08-1.3,1.45-.57,.36-1.31,.55-2.24,.55Z"/><path class="cls-3" d="M269.16,53.94h2.51v-8.03h-2.51v-1.83h4.87v9.87h2.51v1.83h-7.39v-1.83Z"/><polygon class="cls-3" points="279.12 53.94 281.73 53.94 281.73 49.45 279.12 49.45 279.12 47.61 284.09 47.61 284.09 53.94 286.51 53.94 286.51 55.77 279.12 55.77 279.12 53.94"/><path class="cls-3" d="M282.91,46.57c-.53,0-.9-.11-1.11-.32-.21-.22-.31-.48-.31-.78v-.46c0-.32,.1-.58,.31-.79,.21-.21,.58-.32,1.11-.32s.9,.11,1.11,.32c.21,.21,.31,.47,.31,.79v.46c0,.31-.1,.57-.31,.78-.21,.22-.58,.32-1.11,.32Z"/><path class="cls-3" d="M292.17,55.96c-1.38,0-2.42-.38-3.14-1.14s-1.07-1.79-1.07-3.1c0-.66,.09-1.26,.28-1.79,.19-.53,.45-.98,.8-1.36,.34-.37,.76-.66,1.26-.85,.49-.19,1.05-.29,1.66-.29s1.17,.1,1.66,.29c.49,.2,.9,.47,1.24,.83,.34,.36,.6,.79,.79,1.3,.19,.51,.28,1.08,.28,1.72v.7h-5.62v.14c0,.53,.16,.95,.49,1.27,.33,.32,.81,.48,1.45,.48,.49,0,.91-.09,1.26-.28,.35-.18,.65-.43,.91-.73l1.27,1.38c-.32,.39-.76,.73-1.34,1.01-.57,.28-1.3,.43-2.18,.43Zm-.19-6.86c-.51,0-.92,.16-1.22,.47-.3,.31-.45,.73-.45,1.26v.13h3.31v-.13c0-.54-.15-.96-.44-1.26-.29-.31-.69-.46-1.2-.46Z"/><path class="cls-3" d="M297.76,55.77v-8.16h2.36v1.49h.1c.1-.23,.21-.45,.35-.65,.14-.2,.3-.38,.5-.53s.42-.27,.68-.36c.26-.09,.55-.13,.88-.13,.39,0,.75,.07,1.08,.2,.33,.13,.61,.33,.84,.59,.23,.26,.42,.59,.55,.96,.13,.38,.2,.82,.2,1.31v5.28h-2.36v-4.96c0-1.05-.46-1.58-1.38-1.58-.18,0-.36,.02-.53,.07-.18,.05-.33,.12-.47,.22-.14,.1-.25,.22-.33,.37-.08,.15-.12,.32-.12,.52v5.36h-2.36Z"/><path class="cls-3" d="M311.68,55.77c-.85,0-1.48-.22-1.89-.66-.41-.44-.62-1-.62-1.69v-3.97h-2.23v-1.83h1.45c.35,0,.6-.07,.75-.21,.15-.14,.22-.39,.22-.76v-1.91h2.16v2.88h3.2v1.83h-3.2v4.49h3.2v1.83h-3.04Z"/><polygon class="cls-3" points="317.32 53.94 319.93 53.94 319.93 49.45 317.32 49.45 317.32 47.61 322.28 47.61 322.28 53.94 324.7 53.94 324.7 55.77 317.32 55.77 317.32 53.94"/><path class="cls-3" d="M321.11,46.57c-.53,0-.9-.11-1.11-.32-.21-.22-.31-.48-.31-.78v-.46c0-.32,.1-.58,.31-.79,.21-.21,.58-.32,1.11-.32s.9,.11,1.11,.32c.21,.21,.31,.47,.31,.79v.46c0,.31-.1,.57-.31,.78-.21,.22-.58,.32-1.11,.32Z"/></g></g></g></svg>